<svg xmlns="http://www.w3.org/2000/svg" version="1.1" xmlns:xlink="http://www.w3.org/1999/xlink" xmlns:svgjs="http://svgjs.dev/svgjs" width="1440" height="560" preserveAspectRatio="none" viewBox="0 0 1440 560"><g mask="url(&quot;#SvgjsMask1681&quot;)" fill="none"><rect width="1440" height="560" x="0" y="0" fill="url(&quot;#SvgjsLinearGradient1682&quot;)"></rect><path d="M164 421L163 171" stroke-width="8" stroke="url(&quot;#SvgjsLinearGradient1683&quot;)" stroke-linecap="round" class="Up"></path><path d="M403 68L402 -95" stroke-width="8" stroke="url(&quot;#SvgjsLinearGradient1683&quot;)" stroke-linecap="round" class="Up"></path><path d="M187 375L186 780" stroke-width="6" stroke="url(&quot;#SvgjsLinearGradient1684&quot;)" stroke-linecap="round" class="Down"></path><path d="M1365 443L1364 862" stroke-width="6" stroke="url(&quot;#SvgjsLinearGradient1683&quot;)" stroke-linecap="round" class="Up"></path><path d="M1046 192L1045 397" stroke-width="6" stroke="url(&quot;#SvgjsLinearGradient1683&quot;)" stroke-linecap="round" class="Up"></path><path d="M1396 74L1395 -331" stroke-width="8" stroke="url(&quot;#SvgjsLinearGradient1684&quot;)" stroke-linecap="round" class="Down"></path><path d="M729 95L728 497" stroke-width="10" stroke="url(&quot;#SvgjsLinearGradient1684&quot;)" stroke-linecap="round" class="Down"></path><path d="M1210 328L1209 640" stroke-width="6" stroke="url(&quot;#SvgjsLinearGradient1684&quot;)" stroke-linecap="round" class="Down"></path><path d="M771 375L770 -37" stroke-width="10" stroke="url(&quot;#SvgjsLinearGradient1684&quot;)" stroke-linecap="round" class="Down"></path><path d="M755 498L754 693" stroke-width="8" stroke="url(&quot;#SvgjsLinearGradient1684&quot;)" stroke-linecap="round" class="Down"></path><path d="M167 67L166 -262" stroke-width="8" stroke="url(&quot;#SvgjsLinearGradient1683&quot;)" stroke-linecap="round" class="Up"></path><path d="M664 441L663 626" stroke-width="6" stroke="url(&quot;#SvgjsLinearGradient1683&quot;)" stroke-linecap="round" class="Up"></path><path d="M603 463L602 239" stroke-width="8" stroke="url(&quot;#SvgjsLinearGradient1683&quot;)" stroke-linecap="round" class="Up"></path><path d="M1063 190L1062 458" stroke-width="10" stroke="url(&quot;#SvgjsLinearGradient1683&quot;)" stroke-linecap="round" class="Up"></path><path d="M8 485L7 757" stroke-width="8" stroke="url(&quot;#SvgjsLinearGradient1683&quot;)" stroke-linecap="round" class="Up"></path><path d="M1363 242L1362 580" stroke-width="6" stroke="url(&quot;#SvgjsLinearGradient1684&quot;)" stroke-linecap="round" class="Down"></path><path d="M334 382L333 -28" stroke-width="10" stroke="url(&quot;#SvgjsLinearGradient1684&quot;)" stroke-linecap="round" class="Down"></path><path d="M614 101L613 -219" stroke-width="6" stroke="url(&quot;#SvgjsLinearGradient1684&quot;)" stroke-linecap="round" class="Down"></path><path d="M406 434L405 66" stroke-width="8" stroke="url(&quot;#SvgjsLinearGradient1684&quot;)" stroke-linecap="round" class="Down"></path><path d="M602 283L601 -124" stroke-width="8" stroke="url(&quot;#SvgjsLinearGradient1683&quot;)" stroke-linecap="round" class="Up"></path><path d="M541 175L540 331" stroke-width="6" stroke="url(&quot;#SvgjsLinearGradient1684&quot;)" stroke-linecap="round" class="Down"></path><path d="M1131 387L1130 38" stroke-width="8" stroke="url(&quot;#SvgjsLinearGradient1683&quot;)" stroke-linecap="round" class="Up"></path><path d="M705 20L704 297" stroke-width="6" stroke="url(&quot;#SvgjsLinearGradient1684&quot;)" stroke-linecap="round" class="Down"></path><path d="M266 512L265 337" stroke-width="10" stroke="url(&quot;#SvgjsLinearGradient1683&quot;)" stroke-linecap="round" class="Up"></path><path d="M71 32L70 -216" stroke-width="6" stroke="url(&quot;#SvgjsLinearGradient1683&quot;)" stroke-linecap="round" class="Up"></path><path d="M651 331L650 722" stroke-width="8" stroke="url(&quot;#SvgjsLinearGradient1684&quot;)" stroke-linecap="round" class="Down"></path><path d="M1117 514L1116 303" stroke-width="10" stroke="url(&quot;#SvgjsLinearGradient1684&quot;)" stroke-linecap="round" class="Down"></path><path d="M889 198L888 427" stroke-width="10" stroke="url(&quot;#SvgjsLinearGradient1684&quot;)" stroke-linecap="round" class="Down"></path><path d="M37 422L36 227" stroke-width="10" stroke="url(&quot;#SvgjsLinearGradient1683&quot;)" stroke-linecap="round" class="Up"></path><path d="M803 274L802 675" stroke-width="6" stroke="url(&quot;#SvgjsLinearGradient1684&quot;)" stroke-linecap="round" class="Down"></path><path d="M183 249L182 576" stroke-width="6" stroke="url(&quot;#SvgjsLinearGradient1683&quot;)" stroke-linecap="round" class="Up"></path><path d="M1425 328L1424 609" stroke-width="10" stroke="url(&quot;#SvgjsLinearGradient1683&quot;)" stroke-linecap="round" class="Up"></path><path d="M571 91L570 301" stroke-width="10" stroke="url(&quot;#SvgjsLinearGradient1683&quot;)" stroke-linecap="round" class="Up"></path><path d="M1397 386L1396 638" stroke-width="10" stroke="url(&quot;#SvgjsLinearGradient1684&quot;)" stroke-linecap="round" class="Down"></path><path d="M531 63L530 353" stroke-width="10" stroke="url(&quot;#SvgjsLinearGradient1683&quot;)" stroke-linecap="round" class="Up"></path><path d="M174 85L173 434" stroke-width="8" stroke="url(&quot;#SvgjsLinearGradient1683&quot;)" stroke-linecap="round" class="Up"></path></g><defs><mask id="SvgjsMask1681"><rect width="1440" height="560" fill="#ffffff"></rect></mask><linearGradient x1="15.28%" y1="-39.29%" x2="84.72%" y2="139.29%" gradientUnits="userSpaceOnUse" id="SvgjsLinearGradient1682"><stop stop-color="rgba(33, 26, 82, 1)" offset="0"></stop><stop stop-color="rgba(54, 42, 134, 1)" offset="1"></stop></linearGradient><linearGradient x1="0%" y1="100%" x2="0%" y2="0%" id="SvgjsLinearGradient1683"><stop stop-color="rgba(28, 83, 142, 0)" offset="0"></stop><stop stop-color="#1c538e" offset="1"></stop></linearGradient><linearGradient x1="0%" y1="0%" x2="0%" y2="100%" id="SvgjsLinearGradient1684"><stop stop-color="rgba(28, 83, 142, 0)" offset="0"></stop><stop stop-color="#1c538e" offset="1"></stop></linearGradient></defs></svg>